<?xml version="1.0" standalone="no"?><!-- Generator: Gravit.io --><svg xmlns="http://www.w3.org/2000/svg" xmlns:xlink="http://www.w3.org/1999/xlink" style="isolation:isolate" viewBox="-64 272 1072 160" width="1072" height="160"><path d=" M 688 368 C 688 332.677 716.677 304 752 304 C 787.323 304 816 332.677 816 368 C 816 403.323 787.323 432 752 432 C 716.677 432 688 403.323 688 368 Z  M 720 368 C 720 350.339 734.339 336 752 336 C 769.661 336 784 350.339 784 368 C 784 385.661 769.661 400 752 400 C 734.339 400 720 385.661 720 368 Z " fill-rule="evenodd" fill="rgb(255,255,255)"/><path d=" M 880 368 C 880 332.677 908.677 304 944 304 C 979.323 304 1008 332.677 1008 368 C 1008 403.323 979.323 432 944 432 C 908.677 432 880 403.323 880 368 Z  M 912 368 C 912 350.339 926.339 336 944 336 C 961.661 336 976 350.339 976 368 C 976 385.661 961.661 400 944 400 C 926.339 400 912 385.661 912 368 Z " fill-rule="evenodd" fill="rgb(255,255,255)"/><path d=" M 448 312.571 C 438.583 307.121 427.653 304 416 304 C 380.677 304 352 332.677 352 368 L 352 368 C 352 403.323 380.677 432 416 432 C 427.653 432 438.583 428.879 448 423.429 C 437.963 417.615 429.645 409.154 424.017 398.998 C 421.451 399.648 418.766 400 416 400 C 398.339 400 384 385.661 384 368 L 384 368 C 384 350.339 398.339 336 416 336 C 418.766 336 421.451 336.352 424.017 337.002 C 429.645 326.846 437.963 318.385 448 312.571 Z " fill="rgb(255,255,255)"/><path d=" M 448 368 C 448 350.339 462.339 336 480 336 C 497.661 336 512 350.339 512 368 C 512 385.661 497.661 400 480 400 C 462.339 400 448 385.661 448 368 Z " fill="rgb(204,64,64)"/><path d=" M 64 320 L 64 432 L 96 432 L 96 288 L 96 272 L 64 272 L 16 320 L -32 272 L -64 272 L -64 288 L -64 432 L -32 432 L -32 320 L 16 368 L 64 320 Z " fill="rgb(255,255,255)"/><path d=" M 208 312.573 C 198.584 307.122 187.654 304 176 304 C 140.677 304 112 332.677 112 368 L 112 368 C 112 403.323 140.677 432 176 432 C 187.654 432 198.584 428.878 208 423.427 L 208 432 L 240 432 L 240 368 L 240 368 L 240 304 L 208 304 L 208 312.573 Z  M 144 368 C 144 385.661 158.339 400 176 400 C 193.661 400 208 385.661 208 368 C 208 368 208 368 208 368 C 208 350.339 193.661 336 176 336 C 158.339 336 144 350.339 144 368 L 144 368 Z " fill-rule="evenodd" fill="rgb(255,255,255)"/><path d=" M 288 368 C 288 350.339 302.339 336 320 336 C 322.766 336 325.451 336.352 328.017 337.002 C 333.645 326.846 341.963 318.385 352 312.571 C 342.583 307.121 331.653 304 320 304 C 308.346 304 297.416 307.122 288 312.573 L 288 304 L 256 304 L 256 368 L 256 368 L 256 432 L 288 432 L 288 423.427 L 288 368 Z " fill="rgb(255,255,255)"/><path d=" M 576 391.427 C 585.416 396.878 596.346 400 608 400 C 643.323 400 672 371.323 672 336 C 672 300.677 643.323 272 608 272 C 596.346 272 585.416 275.122 576 280.573 L 576 272 L 544 272 L 544 336 L 544 336 C 544 336 544 336 544 336 L 544 432 L 576 432 L 576 391.427 Z  M 576 336 C 576 353.661 590.339 368 608 368 C 625.661 368 640 353.661 640 336 C 640 318.339 625.661 304 608 304 C 590.339 304 576 318.339 576 336 C 576 336 576 336 576 336 L 576 336 Z " fill-rule="evenodd" fill="rgb(255,255,255)"/><path d=" M 832 272 L 864 272 L 864 432 L 832 432 L 832 272 Z " fill="rgb(255,255,255)"/></svg>